0
SECTION
2
HEADER
9
$INSUNITS
70
4
9
$ACADVER
1
AC1014
9
$HANDSEED
5
FFFF
0
ENDSEC
0
SECTION
2
TABLES
0
TABLE
2
VPORT
5
8
100
AcDbSymbolTable
0
ENDTAB
0
TABLE
2
LTYPE
5
5
100
AcDbSymbolTable
0
LTYPE
5
14
100
AcDbSymbolTableRecord
100
AcDbLinetypeTableRecord
2
BYBLOCK
70
0
0
LTYPE
5
15
100
AcDbSymbolTableRecord
100
AcDbLinetypeTableRecord
2
BYLAYER
70
0
0
ENDTAB
0
TABLE
2
LAYER
5
2
100
AcDbSymbolTable
70
2
0
LAYER
5
50
100
AcDbSymbolTableRecord
100
AcDbLayerTableRecord
2
0
70
0
6
CONTINUOUS
0
ENDTAB
0
TABLE
2
STYLE
5
3
100
AcDbSymbolTable
70
1
0
STYLE
5
11
100
AcDbSymbolTableRecord
100
AcDbTextStyleTableRecord
2
STANDARD
70
0
0
ENDTAB
0
TABLE
2
VIEW
5
6
100
AcDbSymbolTable
70
0
0
ENDTAB
0
TABLE
2
UCS
5
7
100
AcDbSymbolTable
70
0
0
ENDTAB
0
TABLE
2
APPID
5
9
100
AcDbSymbolTable
70
2
0
APPID
5
12
100
AcDbSymbolTableRecord
100
AcDbRegAppTableRecord
2
ACAD
70
0
0
ENDTAB
0
TABLE
2
DIMSTYLE
5
A
100
AcDbSymbolTable
70
1
0
ENDTAB
0
TABLE
2
BLOCK_RECORD
5
1
100
AcDbSymbolTable
70
1
0
BLOCK_RECORD
5
1F
100
AcDbSymbolTableRecord
100
AcDbBlockTableRecord
2
*MODEL_SPACE
0
BLOCK_RECORD
5
1B
100
AcDbSymbolTableRecord
100
AcDbBlockTableRecord
2
*PAPER_SPACE
0
ENDTAB
0
ENDSEC
0
SECTION
2
BLOCKS
0
BLOCK
5
20
100
AcDbEntity
100
AcDbBlockBegin
2
*MODEL_SPACE
0
ENDBLK
5
21
100
AcDbEntity
100
AcDbBlockEnd
0
BLOCK
5
1C
100
AcDbEntity
100
AcDbBlockBegin
2
*PAPER_SPACE
0
ENDBLK
5
1D
100
AcDbEntity
100
AcDbBlockEnd
0
ENDSEC
0
SECTION
2
ENTITIES
0
LWPOLYLINE
5
100
100
AcDbEntity
8
0
100
AcDbPolyline
90
25
70
1
43
0.0
10
35.825200000000009
20
-86.499999999999929
10
35.825199999999995
20
-34.699999999999996
42
-0.41421356237309509
10
37.825199999999995
20
-32.700000000000003
10
128.06500000000003
20
-32.699999999999996
42
-0.41421356237309637
10
130.06500000000003
20
-34.699999999999996
10
130.06500000000003
20
-58.110000000000007
42
0.41421356237309509
10
131.06500000000003
20
-59.110000000000007
10
147.98500000000001
20
-59.110000000000007
42
0.41421356237309509
10
148.98500000000001
20
-58.110000000000007
10
148.98500000000001
20
-34.699999999999996
42
-0.41421356237309637
10
150.98500000000001
20
-32.700000000000003
10
241.25
20
-32.700000000000003
42
-0.41421356237309509
10
243.25
20
-34.699999999999996
10
243.25
20
-86.500000000000028
42
-0.41421356237309243
10
241.25
20
-88.5
10
209.25
20
-88.500000000000028
42
0.41421356237309759
10
207.25
20
-90.500000000000043
10
207.25
20
-103.50000000000001
42
-0.41421356237309759
10
205.25000000000003
20
-105.5
10
75.813999999999965
20
-105.5
10
73.823706301037987
20
-105.5
42
-0.414024055954202
10
71.823706719722963
20
-103.50129411737618
10
71.815293280276961
20
-90.498705882623796
42
0.41402405595420982
10
69.815293698961952
20
-88.499999999999943
10
37.825200000000009
20
-88.499999999999943
42
-0.41421356237309759
0
CIRCLE
5
101
100
AcDbEntity
8
0
100
AcDbCircle
10
187.34999999999999
20
-86.099999999999994
30
0
40
1.2500000000000004
210
0
220
0
230
1
0
CIRCLE
5
102
100
AcDbEntity
8
0
100
AcDbCircle
10
187.32499999999999
20
-52.100000000000009
30
0
40
1.2500000000000062
210
0
220
0
230
1
0
CIRCLE
5
103
100
AcDbEntity
8
0
100
AcDbCircle
10
91.724999999999994
20
-52.100000000000009
30
0
40
1.2499999999999976
210
0
220
0
230
1
0
CIRCLE
5
104
100
AcDbEntity
8
0
100
AcDbCircle
10
91.724999999999994
20
-86.099999999999994
30
0
40
1.2500000000000022
210
0
220
0
230
1
0
LWPOLYLINE
5
105
100
AcDbEntity
8
0
100
AcDbPolyline
90
4
70
1
43
0.0
10
39.625
20
-36.5
10
53.825000000000003
20
-36.5
10
53.825000000000003
20
-50.700000000000003
10
39.625
20
-50.700000000000003
0
LWPOLYLINE
5
106
100
AcDbEntity
8
0
100
AcDbPolyline
90
4
70
1
43
0.0
10
57.625
20
-36.5
10
71.825000000000003
20
-36.5
10
71.825000000000003
20
-50.700000000000003
10
57.625
20
-50.700000000000003
0
LWPOLYLINE
5
107
100
AcDbEntity
8
0
100
AcDbPolyline
90
4
70
1
43
0.0
10
75.625
20
-36.5
10
89.825000000000003
20
-36.5
10
89.825000000000003
20
-50.700000000000003
10
75.625
20
-50.700000000000003
0
LWPOLYLINE
5
108
100
AcDbEntity
8
0
100
AcDbPolyline
90
4
70
1
43
0.0
10
93.625
20
-36.5
10
107.825
20
-36.5
10
107.825
20
-50.700000000000003
10
93.625
20
-50.700000000000003
0
LWPOLYLINE
5
109
100
AcDbEntity
8
0
100
AcDbPolyline
90
4
70
1
43
0.0
10
111.625
20
-36.5
10
125.82499999999999
20
-36.5
10
125.82499999999999
20
-50.700000000000003
10
111.625
20
-50.700000000000003
0
LWPOLYLINE
5
110
100
AcDbEntity
8
0
100
AcDbPolyline
90
4
70
1
43
0.0
10
93.625
20
-53.5
10
107.825
20
-53.5
10
107.825
20
-67.700000000000003
10
93.625
20
-67.700000000000003
0
LWPOLYLINE
5
111
100
AcDbEntity
8
0
100
AcDbPolyline
90
4
70
1
43
0.0
10
111.625
20
-67.700000000000003
10
111.625
20
-53.5
10
125.82499999999999
20
-53.5
10
125.82499999999999
20
-67.700000000000003
0
LWPOLYLINE
5
112
100
AcDbEntity
8
0
100
AcDbPolyline
90
4
70
1
43
0.0
10
75.625
20
-53.5
10
89.825000000000003
20
-53.5
10
89.825000000000003
20
-67.700000000000003
10
75.625
20
-67.700000000000003
0
LWPOLYLINE
5
113
100
AcDbEntity
8
0
100
AcDbPolyline
90
4
70
1
43
0.0
10
71.825000000000003
20
-53.5
10
71.825000000000003
20
-67.700000000000003
10
57.625
20
-67.700000000000003
10
57.625
20
-53.5
0
LWPOLYLINE
5
114
100
AcDbEntity
8
0
100
AcDbPolyline
90
4
70
1
43
0.0
10
53.825000000000003
20
-53.5
10
53.825000000000003
20
-67.700000000000003
10
39.625
20
-67.700000000000003
10
39.625
20
-53.5
0
LWPOLYLINE
5
115
100
AcDbEntity
8
0
100
AcDbPolyline
90
4
70
1
43
0.0
10
93.625
20
-70.5
10
107.825
20
-70.5
10
107.825
20
-84.700000000000003
10
93.625
20
-84.700000000000003
0
LWPOLYLINE
5
116
100
AcDbEntity
8
0
100
AcDbPolyline
90
4
70
1
43
0.0
10
111.625
20
-84.700000000000003
10
111.625
20
-70.5
10
125.82499999999999
20
-70.5
10
125.82499999999999
20
-84.700000000000003
0
LWPOLYLINE
5
117
100
AcDbEntity
8
0
100
AcDbPolyline
90
4
70
1
43
0.0
10
75.625
20
-70.5
10
89.825000000000003
20
-70.5
10
89.825000000000003
20
-84.700000000000003
10
75.625
20
-84.700000000000003
0
LWPOLYLINE
5
118
100
AcDbEntity
8
0
100
AcDbPolyline
90
4
70
1
43
0.0
10
71.825000000000003
20
-70.5
10
71.825000000000003
20
-84.700000000000003
10
57.625
20
-84.700000000000003
10
57.625
20
-70.5
0
LWPOLYLINE
5
119
100
AcDbEntity
8
0
100
AcDbPolyline
90
4
70
1
43
0.0
10
53.825000000000003
20
-70.5
10
53.825000000000003
20
-84.700000000000003
10
39.625
20
-84.700000000000003
10
39.625
20
-70.5
0
LWPOLYLINE
5
120
100
AcDbEntity
8
0
100
AcDbPolyline
90
4
70
1
43
0.0
10
93.625
20
-87.5
10
107.825
20
-87.5
10
107.825
20
-101.70000000000002
10
93.625
20
-101.70000000000002
0
LWPOLYLINE
5
121
100
AcDbEntity
8
0
100
AcDbPolyline
90
4
70
1
43
0.0
10
111.625
20
-101.70000000000002
10
111.625
20
-87.5
10
125.82499999999999
20
-87.5
10
125.82499999999999
20
-101.70000000000002
0
LWPOLYLINE
5
122
100
AcDbEntity
8
0
100
AcDbPolyline
90
4
70
1
43
0.0
10
75.625
20
-87.5
10
89.825000000000003
20
-87.5
10
89.825000000000003
20
-101.70000000000002
10
75.625
20
-101.70000000000002
0
LWPOLYLINE
5
123
100
AcDbEntity
8
0
100
AcDbPolyline
90
4
70
1
43
0.0
10
153.25
20
-36.5
10
153.25
20
-50.700000000000003
10
167.44999999999999
20
-50.700000000000003
10
167.44999999999999
20
-36.5
0
LWPOLYLINE
5
124
100
AcDbEntity
8
0
100
AcDbPolyline
90
4
70
1
43
0.0
10
167.44999999999999
20
-53.5
10
153.25
20
-53.5
10
153.25
20
-67.700000000000003
10
167.44999999999999
20
-67.700000000000003
0
LWPOLYLINE
5
125
100
AcDbEntity
8
0
100
AcDbPolyline
90
4
70
1
43
0.0
10
167.44999999999999
20
-70.5
10
153.25
20
-70.5
10
153.25
20
-84.700000000000003
10
167.44999999999999
20
-84.700000000000003
0
LWPOLYLINE
5
126
100
AcDbEntity
8
0
100
AcDbPolyline
90
4
70
1
43
0.0
10
167.44999999999999
20
-87.5
10
153.25
20
-87.5
10
153.25
20
-101.70000000000002
10
167.44999999999999
20
-101.70000000000002
0
LWPOLYLINE
5
127
100
AcDbEntity
8
0
100
AcDbPolyline
90
4
70
1
43
0.0
10
171.25
20
-87.5
10
171.25
20
-101.70000000000002
10
185.44999999999999
20
-101.70000000000002
10
185.44999999999999
20
-87.5
0
LWPOLYLINE
5
128
100
AcDbEntity
8
0
100
AcDbPolyline
90
4
70
1
43
0.0
10
171.25
20
-84.700000000000003
10
185.44999999999999
20
-84.700000000000003
10
185.44999999999999
20
-70.5
10
171.25
20
-70.5
0
LWPOLYLINE
5
129
100
AcDbEntity
8
0
100
AcDbPolyline
90
4
70
1
43
0.0
10
171.25
20
-53.5
10
171.25
20
-67.700000000000003
10
185.44999999999999
20
-67.700000000000003
10
185.44999999999999
20
-53.5
0
LWPOLYLINE
5
130
100
AcDbEntity
8
0
100
AcDbPolyline
90
4
70
1
43
0.0
10
171.25
20
-50.700000000000003
10
185.44999999999999
20
-50.700000000000003
10
185.44999999999999
20
-36.5
10
171.25
20
-36.5
0
LWPOLYLINE
5
131
100
AcDbEntity
8
0
100
AcDbPolyline
90
4
70
1
43
0.0
10
189.24999999999997
20
-36.5
10
189.24999999999997
20
-50.700000000000003
10
203.44999999999999
20
-50.700000000000003
10
203.44999999999999
20
-36.5
0
LWPOLYLINE
5
132
100
AcDbEntity
8
0
100
AcDbPolyline
90
4
70
1
43
0.0
10
203.44999999999999
20
-53.5
10
189.24999999999997
20
-53.5
10
189.24999999999997
20
-67.700000000000003
10
203.44999999999999
20
-67.700000000000003
0
LWPOLYLINE
5
133
100
AcDbEntity
8
0
100
AcDbPolyline
90
4
70
1
43
0.0
10
203.44999999999999
20
-70.5
10
189.24999999999997
20
-70.5
10
189.24999999999997
20
-84.700000000000003
10
203.44999999999999
20
-84.700000000000003
0
LWPOLYLINE
5
134
100
AcDbEntity
8
0
100
AcDbPolyline
90
4
70
1
43
0.0
10
203.44999999999999
20
-87.5
10
189.24999999999997
20
-87.5
10
189.24999999999997
20
-101.70000000000002
10
203.44999999999999
20
-101.70000000000002
0
LWPOLYLINE
5
135
100
AcDbEntity
8
0
100
AcDbPolyline
90
4
70
1
43
0.0
10
207.24999999999997
20
-70.5
10
207.24999999999997
20
-84.700000000000003
10
221.44999999999999
20
-84.700000000000003
10
221.44999999999999
20
-70.5
0
LWPOLYLINE
5
136
100
AcDbEntity
8
0
100
AcDbPolyline
90
4
70
1
43
0.0
10
207.24999999999997
20
-67.700000000000003
10
221.44999999999999
20
-67.700000000000003
10
221.44999999999999
20
-53.5
10
207.24999999999997
20
-53.5
0
LWPOLYLINE
5
137
100
AcDbEntity
8
0
100
AcDbPolyline
90
4
70
1
43
0.0
10
221.44999999999999
20
-50.700000000000003
10
221.44999999999999
20
-36.5
10
207.24999999999997
20
-36.5
10
207.24999999999997
20
-50.700000000000003
0
LWPOLYLINE
5
138
100
AcDbEntity
8
0
100
AcDbPolyline
90
4
70
1
43
0.0
10
225.25
20
-36.5
10
225.25
20
-50.700000000000003
10
239.44999999999999
20
-50.700000000000003
10
239.44999999999999
20
-36.5
0
LWPOLYLINE
5
139
100
AcDbEntity
8
0
100
AcDbPolyline
90
4
70
1
43
0.0
10
239.44999999999999
20
-53.5
10
225.25
20
-53.5
10
225.25
20
-67.700000000000003
10
239.44999999999999
20
-67.700000000000003
0
LWPOLYLINE
5
140
100
AcDbEntity
8
0
100
AcDbPolyline
90
4
70
1
43
0.0
10
239.44999999999999
20
-70.5
10
225.25
20
-70.5
10
225.25
20
-84.700000000000003
10
239.44999999999999
20
-84.700000000000003
0
LWPOLYLINE
5
141
100
AcDbEntity
8
0
100
AcDbPolyline
90
8
70
1
43
0.0
10
134.02499999999998
20
-84.199999999999989
10
145.02500000000001
20
-84.199999999999989
42
-0.41421356237309509
10
147.02499999999998
20
-86.199999999999974
10
147.02499999999998
20
-97.199999999999989
42
-0.41421356237309509
10
145.02500000000001
20
-99.199999999999989
10
134.02499999999998
20
-99.199999999999989
42
-0.41421356237309509
10
132.02499999999998
20
-97.199999999999989
10
132.02499999999998
20
-86.199999999999974
42
-0.41421356237309509
0
ENDSEC
0
SECTION
2
OBJECTS
0
DICTIONARY
5
C
100
AcDbDictionary
3
ACAD_GROUP
350
D
3
ACAD_MLINESTYLE
350
17
0
DICTIONARY
5
D
100
AcDbDictionary
0
DICTIONARY
5
1A
330
C
100
AcDbDictionary
0
DICTIONARY
5
17
100
AcDbDictionary
0
ENDSEC
0
EOF
